<svg width="100" height="100" viewBox="0 0 100 100" fill="none" xmlns="http://www.w3.org/2000/svg">
<path d="M50.018 3.96411C24.644 3.96411 4 24.6081 4 49.9821C4 75.3561 24.644 96.0001 50.018 96.0001C75.392 96.0001 96.036 75.3581 96.036 49.9821C96.036 24.6061 75.392 3.96411 50.018 3.96411ZM69.496 70.6661C68.918 71.5341 67.966 72.0021 66.996 72.0021C66.424 72.0021 65.846 71.8401 65.334 71.4981C60.388 68.2001 52 66.0001 45 66.0021C37.572 66.0061 32.004 67.8301 31.948 67.8481C30.38 68.3801 28.678 67.5241 28.154 65.9521C27.63 64.3801 28.48 62.6801 30.052 62.1581C30.316 62.0701 36.61 60.0081 45 60.0041C52 60.0001 61.736 61.8881 68.664 66.5061C70.044 67.4261 70.416 69.2881 69.496 70.6661ZM75.48 58.3861C74.83 59.4301 73.708 60.0041 72.562 60.0041C71.942 60.0041 71.314 59.8381 70.75 59.4841C61.782 53.8961 52.566 52.7141 44.626 52.7841C35.662 52.8641 28.494 54.5741 28.372 54.6101C26.558 55.1261 24.65 54.0661 24.132 52.2441C23.614 50.4181 24.676 48.5201 26.5 48.0041C27.054 47.8461 34.208 46.0861 44.002 46.0041C52.932 45.9301 64.06 47.2241 74.384 53.6561C75.99 54.6561 76.484 56.7761 75.48 58.3861ZM81.45 44.0261C80.704 45.2941 79.368 46.0001 77.996 46.0001C77.308 46.0001 76.612 45.8221 75.974 45.4501C65.522 39.3141 52.814 38.0121 43.994 38.0001C43.952 38.0001 43.91 38.0001 43.868 38.0001C33.202 38.0001 24.988 39.8761 24.906 39.8961C22.75 40.3901 20.604 39.0581 20.104 36.9061C19.604 34.7561 20.938 32.6081 23.088 32.1061C23.458 32.0201 32.234 30.0001 43.868 30.0001C43.914 30.0001 43.96 30.0001 44.006 30.0001C53.816 30.0141 68.028 31.5061 80.026 38.5501C81.93 39.6701 82.568 42.1221 81.45 44.0261Z" fill="white"/>
</svg>
